<svg width="78" height="78" viewBox="0 0 78 78" fill="none" xmlns="http://www.w3.org/2000/svg">
<rect x="12.2637" width="66" height="66" rx="33" transform="rotate(10.7085 12.2637 0)" fill="#FDEBEB"/>
<path d="M54.068 41.4903C53.7152 43.3561 50.7913 44.2614 49.7353 45.8753C48.7181 47.4316 49.0826 50.4866 47.4511 51.5992C45.8195 52.7118 43.1086 51.2569 41.2883 51.6356C39.4078 52.0307 37.4883 54.4205 35.624 54.068C33.7598 53.7154 32.8455 50.7898 31.2391 49.7352C29.6828 48.718 26.6278 49.0826 25.5152 47.451C24.4026 45.8194 25.8575 43.1085 25.4788 41.2882C25.0837 39.4077 22.6939 37.4882 23.0464 35.624C23.399 33.7597 26.3246 32.8454 27.3792 31.239C28.3961 29.6842 28.0318 26.6278 29.6634 25.5151C31.295 24.4025 34.0074 25.8577 35.8262 25.4787C37.7142 25.085 39.6261 22.6938 41.4904 23.0463C43.3547 23.3989 44.269 26.3245 45.8754 27.3791C47.4317 28.3963 50.4866 28.0317 51.5993 29.6633C52.7119 31.2949 51.257 34.0058 51.6357 35.8261C52.0294 37.7141 54.4206 39.6261 54.068 41.4903Z" fill="#F78682"/>
<path d="M53.8625 37.5618C53.4113 36.8678 52.9442 36.1523 52.8256 35.5784C52.715 35.0524 52.8559 34.2418 52.9921 33.4565C53.245 31.9966 53.533 30.3426 52.603 28.9788C51.673 27.615 50.028 27.2792 48.5766 26.9816C47.7959 26.8216 46.9898 26.6568 46.5404 26.3617C46.0509 26.0421 45.5539 25.3456 45.0726 24.6723C44.2305 23.4888 43.2731 22.1477 41.716 21.8532C40.159 21.5588 38.7794 22.458 37.5618 23.2519C36.8679 23.7031 36.1524 24.1702 35.5785 24.2888C35.0554 24.3999 34.2418 24.2584 33.4566 24.1223C31.9967 23.8694 30.3427 23.5813 28.9789 24.5113C27.6151 25.4414 27.2867 27.0878 26.9816 28.5378C26.8216 29.3185 26.6568 30.1246 26.3618 30.5739C26.0421 31.0634 25.3457 31.5604 24.6723 32.0417C23.4889 32.8838 22.1477 33.8413 21.8533 35.3983C21.5588 36.9554 22.458 38.335 23.252 39.5526C23.7031 40.2465 24.1703 40.962 24.2888 41.5359C24.3994 42.062 24.2585 42.8726 24.1223 43.6578C23.8695 45.1177 23.5814 46.7717 24.5114 48.1355C25.4414 49.4993 27.0864 49.8351 28.5378 50.1327C29.3186 50.2927 30.1247 50.4575 30.574 50.7526C31.0635 51.0722 31.5605 51.7687 32.0418 52.4421C32.8839 53.6255 33.8413 54.9667 35.3984 55.2611C36.9554 55.5556 38.335 54.6563 39.5526 53.8624C40.2465 53.4113 40.9621 52.9441 41.536 52.8256C42.062 52.715 42.8726 52.8559 43.6579 52.992C45.1177 53.2449 46.7718 53.533 48.1356 52.603C49.4993 51.673 49.8351 50.028 50.1328 48.5766C50.2928 47.7958 50.4576 46.9897 50.7526 46.5404C51.0723 46.0509 51.7687 45.5539 52.4421 45.0726C53.6255 44.2305 54.9667 43.273 55.2612 41.716C55.5556 40.1589 54.6564 38.7793 53.8625 37.5618ZM51.0317 43.0958C50.1763 43.7064 49.2908 44.3376 48.7194 45.2105C48.1715 46.0492 47.9586 47.0856 47.7533 48.0895C47.5409 49.1307 47.3178 50.2208 46.7665 50.5954C46.2153 50.97 45.1261 50.7826 44.0733 50.599C43.0638 50.4235 42.0212 50.2433 41.0403 50.4471C40.0191 50.6603 39.1082 51.2542 38.2273 51.8276C37.3465 52.401 36.4462 52.9876 35.8497 52.8748C35.2531 52.762 34.6238 51.883 34.0185 51.0317C33.4133 50.1804 32.7768 49.2907 31.9039 48.7194C31.0652 48.1715 30.0288 47.9585 29.0249 47.7532C27.9837 47.5409 26.8936 47.3177 26.519 46.7665C26.1443 46.2152 26.3318 45.1261 26.5154 44.0733C26.6909 43.0638 26.871 42.0211 26.6672 41.0403C26.4541 40.0191 25.8602 39.1081 25.2868 38.2273C24.7134 37.3465 24.1267 36.4462 24.2395 35.8496C24.3524 35.253 25.2314 34.6237 26.0827 34.0185C26.934 33.4133 27.8237 32.7767 28.395 31.9038C28.9429 31.0651 29.1559 30.0287 29.3612 29.0248C29.5735 27.9836 29.7966 26.8935 30.3479 26.5189C30.8992 26.1443 31.9883 26.3317 33.0411 26.5153C34.0506 26.6908 35.0932 26.871 36.0741 26.6672C37.0953 26.454 38.0063 25.8601 38.8871 25.2867C39.7679 24.7134 40.6682 24.1267 41.2648 24.2395C41.8613 24.3523 42.4907 25.2313 43.0959 26.0826C43.7011 26.9339 44.3377 27.8236 45.2105 28.3949C46.0492 28.9428 47.0857 29.1558 48.0896 29.3611C49.1307 29.5734 50.2208 29.7966 50.5955 30.3478C50.9701 30.8991 50.7827 31.9883 50.599 33.041C50.4236 34.0506 50.2434 35.0932 50.4472 36.074C50.6603 37.0953 51.2543 38.0062 51.8276 38.887C52.401 39.7678 52.9877 40.6682 52.8749 41.2647C52.7621 41.8613 51.883 42.4906 51.0317 43.0958ZM46.2036 35.4214C46.2936 35.5532 46.3567 35.7014 46.3893 35.8576C46.422 36.0138 46.4235 36.1749 46.3939 36.3317C46.3642 36.4885 46.304 36.6379 46.2165 36.7714C46.1291 36.9049 46.0162 37.0198 45.8843 37.1097L35.9529 43.8822C35.8211 43.9722 35.6729 44.0353 35.5167 44.068C35.3605 44.1006 35.1994 44.1022 35.0426 44.0725C34.8858 44.0429 34.7364 43.9826 34.6029 43.8952C34.4694 43.8078 34.3545 43.6949 34.2646 43.563L31.3621 39.3067C31.1806 39.0404 31.1122 38.713 31.1721 38.3964C31.232 38.0798 31.4152 37.7999 31.6814 37.6184C31.9476 37.4368 32.275 37.3685 32.5916 37.4284C32.9083 37.4882 33.1881 37.6714 33.3697 37.9376L35.5874 41.1917L44.5153 35.1021C44.6471 35.0121 44.7953 34.949 44.9515 34.9164C45.1077 34.8837 45.2688 34.8822 45.4256 34.9118C45.5824 34.9415 45.7318 35.0017 45.8653 35.0892C45.9988 35.1766 46.1137 35.2895 46.2036 35.4214Z" fill="#94100C"/>
</svg>
