<svg width="134" height="56" viewBox="0 0 134 56" fill="none" xmlns="http://www.w3.org/2000/svg">
<path d="M64.9583 25.46V42.8127H58.3391V26.4332C58.3391 20.0986 54.7429 18.213 51.0337 18.213C46.2995 18.213 43.2766 21.2369 43.2766 26.885V42.8127H36.7181V0H43.2766V17.9262C45.1615 14.5026 48.4103 12.5649 52.9795 12.5649C59.2599 12.5649 64.9583 16.3882 64.9583 25.4687V25.46Z" fill="#00434F"/>
<path d="M76.7111 13.1905V42.8127H70.1527V13.1905H76.7111Z" fill="#00434F"/>
<path d="M88.586 17.6396C90.1843 14.5027 95.2747 11.9567 101.764 13.1906L98.1152 18.7866C92.4081 18.048 89.0464 22.132 88.8119 26.7026L87.4568 42.8215H82.0189V13.1993H87.6739L88.586 17.6483V17.6396Z" fill="#00434F"/>
<path d="M134 28.0838C134 36.8775 128.241 43.438 119.102 43.438C114.655 43.438 110.546 41.2656 108.314 37.3902V55.9421H101.755V13.1902H107.176L108.314 19.0729V19.2467C109.912 15.2496 114.073 12.6254 119.441 12.6254C128.458 12.6254 133.991 19.5334 133.991 28.0925L134 28.0838ZM127.442 28.0317C127.442 22.4357 123.446 18.4994 117.852 18.4994C112.257 18.4994 108.322 22.6095 108.322 28.0317C108.322 33.4539 112.318 37.5031 117.852 37.5031C123.385 37.5031 127.442 33.5668 127.442 28.0317Z" fill="#00434F"/>
<path d="M92.6859 24.8691C92.6859 23.4961 93.7631 22.4186 95.1355 22.4186C96.508 22.4186 97.5504 23.4961 97.5504 24.8691C97.5504 26.242 96.4733 27.2847 95.1355 27.2847C93.7978 27.2847 92.6859 26.2072 92.6859 24.8691Z" fill="#00434F"/>
<path d="M0 22.4191C0 10.7144 8.90379 1.58186 20.2572 1.58186C26.3031 1.58186 30.2468 3.58041 32.1231 5.11844V11.6789C30.5248 10.0801 26.9285 7.68183 21.0563 7.68183C13.0647 7.68183 6.68 13.9034 6.68 22.4104C6.68 30.9173 13.1255 37.1389 21.0563 37.1389C26.9372 37.1389 30.5248 34.6885 32.1231 33.1418V39.7023C30.2381 41.2403 26.3031 43.2389 20.2572 43.2389C8.90379 43.2389 0 34.1063 0 22.4017V22.4191Z" fill="#00434F"/>
</svg>
