<svg width="74" height="74" viewBox="0 0 74 74" fill="none" xmlns="http://www.w3.org/2000/svg">
<rect y="7.49695" width="66" height="66" rx="33" transform="rotate(-6.52231 0 7.49695)" fill="#6DC8D9"/>
<path d="M19.8433 31.3976L51.6361 27.7627L53.9079 47.6333C54.0285 48.6873 53.7253 49.746 53.0652 50.5765C52.4052 51.407 51.4422 51.9412 50.3882 52.0617L26.5435 54.7879C25.4895 54.9084 24.4308 54.6053 23.6003 53.9452C22.7698 53.2851 22.2356 52.3221 22.1151 51.2681L19.8433 31.3976Z" fill="#E8F6F9"/>
<path d="M36.6485 37.5284L37.5572 45.4766M33.1287 41.9569L41.0769 41.0481M19.8433 31.3976L51.6362 27.7627M42.5521 18.7362L43.0064 22.7103M26.6556 20.5536L27.11 24.5277M18.9346 23.4494L50.7275 19.8145L53.908 47.6333C54.0285 48.6873 53.7254 49.746 53.0653 50.5765C52.4052 51.407 51.4422 51.9413 50.3882 52.0618L26.5436 54.7879C25.4896 54.9084 24.4309 54.6053 23.6004 53.9452C22.7699 53.2851 22.2356 52.3222 22.1151 51.2682L18.9346 23.4494Z" stroke="#00434F" stroke-width="2.5" stroke-linecap="round" stroke-linejoin="round"/>
</svg>
