<svg width="69" height="69" viewBox="0 0 69 69" fill="none" xmlns="http://www.w3.org/2000/svg">
<rect y="2.61902" width="66" height="66" rx="33" transform="rotate(-2.2742 0 2.61902)" fill="#6ACD7A"/>
<path d="M25.1767 17.6318C26.1544 17.5929 30.4144 26.2365 30.4532 27.2141C30.5309 29.1694 27.6756 31.2412 26.7756 33.2353C25.8756 35.2294 27.9085 37.1071 29.9415 38.9847C30.7431 39.7251 34.0074 42.74 35.9238 41.6847C37.8403 40.6294 39.6791 37.6188 41.6344 37.5411C42.6121 37.5023 51.5662 41.0635 51.605 42.0411C51.7603 45.9517 48.9438 49.0011 46.0497 50.0952C43.1556 51.1894 41.2003 51.267 37.2509 50.4447C33.3015 49.6223 30.3297 48.7612 25.2474 44.0671C20.165 39.373 19.0709 36.4788 17.9379 32.6071C16.805 28.7353 16.7273 26.78 17.5885 23.8083C18.4497 20.8365 21.2661 17.7871 25.1767 17.6318Z" fill="#E5F6EC" stroke="#005F26" stroke-width="2.5" stroke-linecap="round" stroke-linejoin="round"/>
<path d="M37.2225 25.0732C38.5381 25.6149 39.7367 26.3895 40.7643 27.3476C41.7653 28.2807 42.6043 29.3878 43.2319 30.6234" stroke="#005F26" stroke-width="2.5" stroke-linecap="round" stroke-linejoin="round"/>
<path d="M50.5687 28.3736C49.7548 25.6627 48.2296 23.2709 46.2169 21.4052C44.1902 19.5265 41.6694 18.1813 38.8833 17.5809" stroke="#005F26" stroke-width="2.5" stroke-linecap="round" stroke-linejoin="round"/>
</svg>
